<svg width="228" height="71" viewBox="0 0 228 71" fill="none" xmlns="http://www.w3.org/2000/svg">
<g filter="url(#filter0_d_960_924)">
<path d="M67.8946 45.8673C67.1695 46.4606 66.2796 46.9056 65.2249 47.2022C64.2031 47.4988 63.1154 47.6472 61.9618 47.6472C59.0613 47.6472 56.8201 46.8891 55.238 45.3729C53.6559 43.8568 52.8649 41.6484 52.8649 38.748V15.0662H59.0449V21.0979H66.1148V26.0419H59.0449V38.5996C59.0449 39.8851 59.358 40.8739 59.9842 41.566C60.6434 42.2252 61.5498 42.5548 62.7034 42.5548C64.0877 42.5548 65.2413 42.1923 66.1642 41.4672L67.8946 45.8673ZM80.5385 47.6472C77.8688 47.6472 75.4627 47.0704 73.3203 45.9168C71.1779 44.7632 69.4969 43.1646 68.2774 41.1211C67.0908 39.0446 66.4976 36.7044 66.4976 34.1006C66.4976 31.4968 67.0908 29.1731 68.2774 27.1296C69.4969 25.086 71.1779 23.4875 73.3203 22.3339C75.4627 21.1803 77.8688 20.6035 80.5385 20.6035C83.2412 20.6035 85.6638 21.1803 87.8062 22.3339C89.9486 23.4875 91.6131 25.086 92.7996 27.1296C94.0192 29.1731 94.6289 31.4968 94.6289 34.1006C94.6289 36.7044 94.0192 39.0446 92.7996 41.1211C91.6131 43.1646 89.9486 44.7632 87.8062 45.9168C85.6638 47.0704 83.2412 47.6472 80.5385 47.6472ZM80.5385 42.3571C82.8128 42.3571 84.6915 41.599 86.1747 40.0828C87.6579 38.5667 88.3995 36.5726 88.3995 34.1006C88.3995 31.6286 87.6579 29.6345 86.1747 28.1184C84.6915 26.6022 82.8128 25.8441 80.5385 25.8441C78.2643 25.8441 76.3856 26.6022 74.9024 28.1184C73.4521 29.6345 72.727 31.6286 72.727 34.1006C72.727 36.5726 73.4521 38.5667 74.9024 40.0828C76.3856 41.599 78.2643 42.3571 80.5385 42.3571ZM122.638 20.9001V47.3011H116.755V43.9392C115.766 45.1257 114.53 46.0486 113.047 46.7078C111.564 47.334 109.965 47.6472 108.251 47.6472C104.724 47.6472 101.939 46.6748 99.8958 44.7302C97.8853 42.7526 96.88 39.8356 96.88 35.9793V20.9001H103.06V35.1388C103.06 37.512 103.587 39.2918 104.642 40.4784C105.73 41.632 107.262 42.2088 109.24 42.2088C111.448 42.2088 113.195 41.5331 114.481 40.1817C115.799 38.7974 116.458 36.8198 116.458 34.2489V20.9001H122.638ZM133.152 24.7564C134.932 21.9878 138.063 20.6035 142.546 20.6035V26.4868C142.019 26.388 141.541 26.3385 141.112 26.3385C138.706 26.3385 136.827 27.0472 135.476 28.4644C134.125 29.8488 133.449 31.8593 133.449 34.4961V47.3011H127.269V20.9001H133.152V24.7564ZM144.328 20.9001H150.508V47.3011H144.328V20.9001ZM147.442 16.5494C146.322 16.5494 145.382 16.2033 144.624 15.5112C143.866 14.786 143.487 13.8961 143.487 12.8414C143.487 11.7867 143.866 10.9132 144.624 10.2211C145.382 9.49595 146.322 9.1334 147.442 9.1334C148.563 9.1334 149.502 9.47947 150.261 10.1716C151.019 10.8308 151.398 11.6713 151.398 12.6931C151.398 13.7808 151.019 14.7036 150.261 15.4617C149.535 16.1868 148.596 16.5494 147.442 16.5494ZM169.792 20.6035C172.363 20.6035 174.654 21.1638 176.665 22.2844C178.708 23.4051 180.307 24.9872 181.46 27.0307C182.614 29.0742 183.191 31.4308 183.191 34.1006C183.191 36.7704 182.614 39.1435 181.46 41.22C180.307 43.2635 178.708 44.8456 176.665 45.9662C174.654 47.0868 172.363 47.6472 169.792 47.6472C166.233 47.6472 163.415 46.4606 161.338 44.0875V56.8924H155.158V20.9001H161.042V24.3609C162.063 23.1084 163.316 22.1691 164.799 21.5428C166.315 20.9166 167.98 20.6035 169.792 20.6035ZM169.1 42.3571C171.374 42.3571 173.237 41.599 174.687 40.0828C176.17 38.5667 176.912 36.5726 176.912 34.1006C176.912 31.6286 176.17 29.6345 174.687 28.1184C173.237 26.6022 171.374 25.8441 169.1 25.8441C167.617 25.8441 166.282 26.1902 165.096 26.8824C163.909 27.5416 162.97 28.4974 162.278 29.7499C161.585 31.0024 161.239 32.4526 161.239 34.1006C161.239 35.7486 161.585 37.1988 162.278 38.4513C162.97 39.7038 163.909 40.6761 165.096 41.3683C166.282 42.0275 167.617 42.3571 169.1 42.3571ZM194.292 47.6472C191.557 47.6472 189.414 46.9056 187.865 45.4224C186.349 43.9062 185.591 41.7803 185.591 39.0446V10.6166H191.771V38.5996C191.771 41.2364 193.007 42.5548 195.479 42.5548C196.303 42.5548 197.044 42.39 197.704 42.0604L198 47.0044C196.847 47.4329 195.611 47.6472 194.292 47.6472ZM210.814 42.4065C213.681 42.4065 216.071 41.4507 217.982 39.539L221.246 43.3459C220.092 44.7632 218.609 45.8344 216.796 46.5595C214.983 47.2846 212.94 47.6472 210.665 47.6472C207.765 47.6472 205.21 47.0704 203.002 45.9168C200.794 44.7632 199.08 43.1646 197.86 41.1211C196.674 39.0446 196.081 36.7044 196.081 34.1006C196.081 31.5297 196.657 29.2225 197.811 27.179C198.998 25.1025 200.613 23.4875 202.656 22.3339C204.733 21.1803 207.073 20.6035 209.677 20.6035C212.149 20.6035 214.39 21.1473 216.4 22.235C218.444 23.2897 220.059 24.8224 221.246 26.8329C222.432 28.8105 223.025 31.1342 223.025 33.804L202.804 37.7592C203.431 39.2753 204.436 40.4289 205.82 41.22C207.205 42.011 208.869 42.4065 210.814 42.4065ZM209.677 25.5475C207.402 25.5475 205.557 26.2891 204.139 27.7723C202.755 29.2555 202.063 31.2496 202.063 33.7545V33.804L216.994 30.9364C216.565 29.3214 215.692 28.0195 214.373 27.0307C213.088 26.0419 211.522 25.5475 209.677 25.5475Z" fill="#FFF7F7"/>
<path d="M26.9395 2.7957C27.2099 2.8617 27.476 2.95695 27.7497 2.9887C29.4956 3.19508 31.1712 3.65211 32.7899 4.33557C34.4035 5.01653 35.8967 5.9072 37.276 6.97416C38.0752 7.59245 38.8226 8.28427 39.5424 8.99446C39.9408 9.38716 40.022 9.92775 39.7542 10.4508C39.3893 11.1635 38.9231 11.7943 38.1255 12.0759C37.8535 12.172 37.5655 12.2472 37.2801 12.2731C37.1446 12.2856 36.9512 12.1979 36.8608 12.0909C35.9921 11.0674 34.9425 10.2678 33.8595 9.48158C32.1647 8.25168 30.2522 7.61083 28.2586 7.09531C27.23 6.82962 26.1963 6.74272 25.1518 6.69343C23.5892 6.61906 22.1145 7.03933 20.6641 7.55652C19.0111 8.14557 17.62 9.13483 16.3989 10.3764C14.9041 11.8954 13.9257 13.7043 13.4386 15.7681C13.2411 16.6053 13.0762 17.4625 13.0218 18.3181C12.9482 19.4778 13.1415 20.6133 13.4964 21.7354C13.9425 23.1441 14.4346 24.5286 15.3753 25.6808C16.0189 26.4695 16.7212 27.2357 17.5062 27.8782C19.0638 29.1515 20.834 30.0255 22.9163 30.3071C22.9297 30.1082 22.9523 29.9227 22.9523 29.7372C22.954 25.7259 22.954 21.7153 22.954 17.704C22.954 16.7941 23.5599 16.185 24.4781 16.1115C25.1284 16.0597 25.7335 16.1257 26.3227 16.434C26.7747 16.6704 26.9873 16.9261 26.9873 17.4191C26.9873 21.514 26.9873 25.6081 26.9873 29.703C26.9873 29.8943 26.9873 30.0856 26.9873 30.3923C27.8376 30.1475 28.6176 29.9678 29.3642 29.698C30.6548 29.2317 31.7746 28.4697 32.7899 27.5548C33.4168 26.99 33.8151 26.9716 34.6019 27.2967C35.664 27.7353 36.0147 28.5825 36.1134 29.6203C36.1528 30.033 35.8674 30.2661 35.6004 30.475C34.8605 31.0515 34.1357 31.6606 33.3372 32.1461C31.5897 33.2072 29.7325 34.0185 27.6727 34.2716C27.4668 34.2967 27.2643 34.3485 27.0241 34.3953C27.0241 40.2757 27.0241 46.1645 27.0241 52.0525C27.0484 52.06 27.0718 52.0683 27.0961 52.0758C27.2526 51.8068 27.4183 51.5428 27.5639 51.2679C27.784 50.8526 27.9799 50.424 28.2042 50.0104C28.816 48.8833 29.4496 47.7679 30.053 46.6374C30.9369 44.9814 31.7939 43.3103 32.6786 41.6543C33.2636 40.5581 33.8779 39.4778 34.478 38.3899C34.9367 37.5594 35.4012 36.7314 35.8506 35.8959C36.5587 34.5799 37.2592 33.2598 37.9589 31.9388C38.3732 31.156 38.7632 30.3597 39.2018 29.591C39.2964 29.4256 39.5466 29.2735 39.7408 29.251C40.6037 29.1515 41.4206 29.3688 42.0709 29.9277C42.419 30.2268 42.635 30.6947 42.8559 31.115C42.9145 31.2261 42.8007 31.4576 42.7204 31.6088C41.9411 33.0726 41.1561 34.534 40.3643 35.992C39.7567 37.1107 39.1332 38.2212 38.523 39.3391C37.7748 40.7085 37.0291 42.0796 36.2917 43.4549C36.0239 43.9545 35.7954 44.4751 35.525 44.973C34.9609 46.0141 34.3692 47.0401 33.8093 48.0837C32.9489 49.6904 32.1103 51.3088 31.2532 52.9172C30.6899 53.975 30.1091 55.0244 29.5391 56.0788C28.9491 57.1709 28.3599 58.2629 27.774 59.3566C27.3949 60.0635 27.0542 60.7937 26.6307 61.473C26.4608 61.7454 26.1453 61.9944 25.8423 62.1038C24.6488 62.5358 23.3289 62.2191 23.0385 60.6826C22.9824 60.3852 22.9573 60.0785 22.9565 59.7761C22.9523 51.5311 22.9531 43.2861 22.9531 35.0411C22.9531 34.8348 22.9531 34.6284 22.9531 34.4763C21.8299 34.1897 20.7461 33.9675 19.6982 33.6316C18.3231 33.1905 17.0442 32.5137 15.88 31.6665C14.9686 31.0022 14.0672 30.2937 13.293 29.4799C12.5765 28.7262 12.0116 27.823 11.4207 26.9574C10.4808 25.5797 9.92674 24.0314 9.52333 22.4255C9.0856 20.6835 9.03706 18.9021 9.16009 17.1325C9.30489 15.0453 9.92005 13.0576 10.8625 11.1877C11.1705 10.5761 11.6241 10.038 11.989 9.45317C12.4619 8.69618 13.0335 8.03695 13.7223 7.46295C14.2839 6.99505 14.7551 6.41687 15.331 5.9707C17.3355 4.41662 19.6254 3.48668 22.1095 3.01293C22.4903 2.94024 22.8719 2.86922 23.2528 2.79737C24.4839 2.7957 25.7117 2.7957 26.9395 2.7957Z" fill="#FFF7F7"/>
<path d="M42.9581 21.1188C42.6032 21.1814 41.9094 21.1982 41.6549 21.1355C40.9837 20.9684 40.7577 20.6166 40.6113 19.9624C40.3585 18.8345 40.0739 17.7073 39.6998 16.6153C39.4663 15.9318 39.0528 15.3085 38.7047 14.6668C38.4703 14.234 38.5875 13.3275 38.9616 12.8772C39.6781 12.0149 40.9276 11.7559 41.8935 12.3299C42.1421 12.4778 42.3337 12.7886 42.4559 13.0668C43.0075 14.3159 43.5825 15.5592 44.0344 16.8451C44.3391 17.7115 44.4813 18.6398 44.6429 19.5497C44.7492 20.1512 44.4052 20.5865 43.8888 20.8372" fill="#FFF7F7"/>
<path d="M42.6836 22.9101C43.5322 23.022 44.0897 23.1039 44.5868 23.6997C44.7232 23.8626 44.8253 24.1283 44.8053 24.3338C44.7299 25.0875 44.6102 25.8378 44.4755 26.5839C44.447 26.7401 44.3089 26.9056 44.1767 27.0092C43.4728 27.5564 42.1044 27.6057 41.3478 27.0911C40.7251 26.6666 40.392 26.1519 40.6439 25.1677C40.7326 24.8226 40.8021 24.4541 40.7761 24.104C40.7393 23.5969 41.0314 23.3019 41.3997 23.1632C41.7504 23.0028 42.3128 22.9385 42.6836 22.9101Z" fill="#FFF7F7"/>
</g>
<defs>
<filter id="filter0_d_960_924" x="-4" y="0" width="231.025" height="73" filterUnits="userSpaceOnUse" color-interpolation-filters="sRGB">
<feFlood flood-opacity="0" result="BackgroundImageFix"/>
<feColorMatrix in="SourceAlpha" type="matrix" values="0 0 0 0 0 0 0 0 0 0 0 0 0 0 0 0 0 0 127 0" result="hardAlpha"/>
<feOffset dy="4"/>
<feGaussianBlur stdDeviation="2"/>
<feComposite in2="hardAlpha" operator="out"/>
<feColorMatrix type="matrix" values="0 0 0 0 0 0 0 0 0 0 0 0 0 0 0 0 0 0 0.25 0"/>
<feBlend mode="normal" in2="BackgroundImageFix" result="effect1_dropShadow_960_924"/>
<feBlend mode="normal" in="SourceGraphic" in2="effect1_dropShadow_960_924" result="shape"/>
</filter>
</defs>
</svg>
